<svg xmlns="http://www.w3.org/2000/svg" viewBox="0 0 200 110" fill="currentColor" role="img" aria-label="FORCE">
  <path d="M105.00,96.00 C135.61,74.69 157.57,35.68 159.62,34.93 C155.27,33.75 120.67,62.16 105.00,96.00 Z"/>
  <path d="M95.00,96.00 C79.33,62.16 44.73,33.75 40.38,34.93 C42.43,35.68 64.39,74.69 95.00,96.00 Z"/>
  <path d="M105.00,96.00 C136.20,85.93 163.82,58.02 165.44,58.04 C162.25,55.70 126.03,70.84 105.00,96.00 Z"/>
  <path d="M95.00,96.00 C73.97,70.84 37.75,55.70 34.56,58.04 C36.18,58.02 63.80,85.93 95.00,96.00 Z"/>
  <path d="M105.00,96.00 C131.80,95.49 159.58,79.53 160.46,80.10 C158.84,77.24 126.98,80.66 105.00,96.00 Z"/>
  <path d="M95.00,96.00 C73.02,80.66 41.16,77.24 39.54,80.10 C40.42,79.53 68.20,95.49 95.00,96.00 Z"/>
  <path d="M105.00,96.00 C124.63,100.83 147.99,94.65 148.11,95.29 C147.89,92.85 124.02,89.15 105.00,96.00 Z"/>
  <path d="M95.00,96.00 C75.98,89.15 52.11,92.85 51.89,95.29 C52.01,94.65 75.37,100.83 95.00,96.00 Z"/>
  <path d="M100.00,10 C104.00,28 104.50,58 100.00,96 C95.50,58 96.00,28 100.00,10 Z"/>
</svg>